<svg xmlns="http://www.w3.org/2000/svg" viewBox="0 0 800 600" role="img" aria-label="Platzhalter: Entwässerung und Sanierung">
  <defs>
    <linearGradient id="g" x1="0" y1="0" x2="1" y2="1">
      <stop offset="0" stop-color="#12291F"/><stop offset=".55" stop-color="#1A3A2D"/><stop offset="1" stop-color="#204D3A"/>
    </linearGradient>
  </defs>
  <rect width="800" height="600" fill="url(#g)"/>
  <path d="M-20 480c160-60 300-10 460-70s240-110 380-100" stroke="#97AB29" stroke-opacity=".14" stroke-width="1.5" fill="none"/>
  <path d="M-20 530c170-50 320 5 480-55s220-90 360-82" stroke="#ECEFD5" stroke-opacity=".08" stroke-width="1.5" fill="none"/>
  <g transform="translate(400 255) scale(9)" fill="none" stroke="#97AB29" stroke-width=".85" stroke-linecap="round" stroke-linejoin="round" opacity=".85">
    <path d="M0-9c3.4 4.1 5.8 7.1 5.8 10A5.8 5.8 0 0 1-5.8 1C-5.8-1.9-3.4-4.9 0-9z"/>
    <path d="M-2.5 2.5C-2.1 4-.9 4.9.5 5.1"/>
  </g>
  <text x="400" y="472" text-anchor="middle" font-family="Segoe UI, sans-serif" font-size="21" font-weight="600" fill="#ECEFD5" opacity=".82">Entwässerung &amp; Sanierung</text>
  <text x="400" y="502" text-anchor="middle" font-family="Segoe UI, sans-serif" font-size="14" fill="#C7D2BE" opacity=".6">Projektfoto folgt in Kürze</text>
</svg>
